<svg width="16" height="20" viewBox="0 0 16 20" fill="none" xmlns="http://www.w3.org/2000/svg">
<path d="M7.99996 0C4.00601 0 0.756714 3.2493 0.756714 7.2432C0.756714 12.1998 7.23871 19.4763 7.51468 19.7836C7.7739 20.0723 8.22648 20.0718 8.48523 19.7836C8.76121 19.4763 15.2432 12.1998 15.2432 7.2432C15.2431 3.2493 11.9939 0 7.99996 0ZM7.99996 10.8875C5.9905 10.8875 4.35574 9.25266 4.35574 7.2432C4.35574 5.23375 5.99054 3.59898 7.99996 3.59898C10.0094 3.59898 11.6441 5.23379 11.6441 7.24324C11.6441 9.2527 10.0094 10.8875 7.99996 10.8875Z" fill="#E35252"/>
</svg>
