<svg width="50" height="50" viewBox="0 0 50 50" fill="none" xmlns="http://www.w3.org/2000/svg">
<g clip-path="url(#clip0)">
<path d="M18.2196 4.8662L24.7658 1.06311C24.9107 0.978962 25.0895 0.978962 25.2344 1.06311L31.7808 4.86621C32.4477 5.25364 32.4435 6.21828 31.7732 6.5999L25.495 10.1745C25.1882 10.3492 24.8121 10.3492 24.5054 10.1745L18.2271 6.59988C17.5569 6.21827 17.5527 5.25364 18.2196 4.8662Z" stroke="#3F3F3F" stroke-width="2"/>
<path d="M14.5048 19.564L14.5047 19.5639C14.3596 19.481 14.2699 19.3266 14.2699 19.1592V11.7427C14.2699 10.9756 15.098 10.4941 15.7647 10.8737L22.0286 14.4402C22.341 14.618 22.5338 14.9498 22.5338 15.3092V22.4288C22.5338 23.1966 21.7044 23.678 21.0377 23.297L14.5048 19.564Z" stroke="#3F3F3F" stroke-width="2"/>
<path d="M35.4954 19.5639L35.4953 19.564L28.9624 23.297C28.2958 23.678 27.4663 23.1966 27.4663 22.4288V15.3092C27.4663 14.9498 27.6592 14.618 27.9715 14.4402L34.2354 10.8737C34.9021 10.4941 35.7302 10.9756 35.7302 11.7427V19.1592C35.7302 19.3265 35.6406 19.481 35.4954 19.5639Z" stroke="#3F3F3F" stroke-width="2"/>
<path d="M16.7302 31.2799L16.7309 31.2807L21.3835 35.884C22.1197 36.6141 22.5338 37.6078 22.5338 38.6445V48.5337C22.5338 48.7912 22.325 49 22.0675 49H12.319C12.0615 49 11.8527 48.7912 11.8527 48.5337V44.5264V44.1083L11.5552 43.8147L4.18058 36.5372C4.18058 36.5372 4.18057 36.5372 4.18057 36.5372C3.06814 35.4393 2.44189 33.9415 2.44189 32.3785V18.2795C2.44189 17.1852 3.32898 16.2981 4.42332 16.2981C5.51766 16.2981 6.40475 17.1852 6.40475 18.2795V32.6527V33.0644L6.69451 33.3567L12.9277 39.6456L12.9278 39.6456C13.7642 40.4894 15.1126 40.5365 16.006 39.7536L16.0061 39.7535C16.9833 38.8969 17.0328 37.3926 16.1138 36.4736L10.2973 30.6571C12.2756 29.3334 14.9763 29.5408 16.7302 31.2799Z" stroke="#3F3F3F" stroke-width="2"/>
<path d="M33.2692 31.2807L33.2699 31.2799C35.0238 29.5408 37.7244 29.3334 39.7028 30.6571L33.8863 36.4736C32.9673 37.3926 33.0168 38.8969 33.994 39.7535L33.9941 39.7536C34.8875 40.5365 36.2359 40.4894 37.0723 39.6456L37.0724 39.6455L43.3055 33.3567L43.5952 33.0643V32.6527V18.2795C43.5952 17.1852 44.4823 16.2981 45.5767 16.2981C46.671 16.2981 47.5581 17.1852 47.5581 18.2795V32.3785C47.5581 33.9415 46.9319 35.4393 45.8194 36.5372C45.8194 36.5372 45.8194 36.5372 45.8194 36.5372L38.4448 43.8147L38.1472 44.1083V44.5264V48.5337C38.1472 48.7912 37.9385 49 37.681 49H27.9326C27.6751 49 27.4663 48.7912 27.4663 48.5337V38.6445C27.4663 37.608 27.8803 36.6144 28.6162 35.8844C28.6163 35.8843 28.6165 35.8841 28.6166 35.884L33.2692 31.2807Z" stroke="#3F3F3F" stroke-width="2"/>
</g>
<defs>
<clipPath id="clip0">
<rect width="50" height="50" fill="white"/>
</clipPath>
</defs>
</svg>
