<svg width="40" height="40" viewBox="0 0 40 40" fill="none" xmlns="http://www.w3.org/2000/svg">
<circle cx="20" cy="20" r="20" fill="#A9DEF9"/>
<path d="M19.9969 13.5863C16.4476 13.5863 13.5832 16.4507 13.5832 20C13.5832 23.5493 16.4476 26.4137 19.9969 26.4137C23.5461 26.4137 26.4106 23.5493 26.4106 20C26.4106 16.4507 23.5461 13.5863 19.9969 13.5863ZM19.9969 24.1684C17.7016 24.1684 15.8284 22.2953 15.8284 20C15.8284 17.7047 17.7016 15.8316 19.9969 15.8316C22.2922 15.8316 24.1653 17.7047 24.1653 20C24.1653 22.2953 22.2922 24.1684 19.9969 24.1684ZM26.6733 11.8289C25.8446 11.8289 25.1754 12.4981 25.1754 13.3267C25.1754 14.1554 25.8446 14.8246 26.6733 14.8246C27.5019 14.8246 28.1711 14.1586 28.1711 13.3267C28.1714 13.13 28.1328 12.9351 28.0576 12.7532C27.9824 12.5714 27.8721 12.4062 27.733 12.267C27.5938 12.1279 27.4286 12.0176 27.2468 11.9424C27.0649 11.8672 26.87 11.8286 26.6733 11.8289ZM32.4991 20C32.4991 18.2738 32.5147 16.5633 32.4178 14.8403C32.3208 12.8389 31.8643 11.0627 30.4008 9.59922C28.9342 8.13261 27.1611 7.67918 25.1597 7.58224C23.4336 7.48529 21.723 7.50093 20 7.50093C18.2738 7.50093 16.5633 7.48529 14.8403 7.58224C12.8389 7.67918 11.0627 8.13573 9.59922 9.59922C8.13261 11.0658 7.67918 12.8389 7.58224 14.8403C7.48529 16.5664 7.50093 18.277 7.50093 20C7.50093 21.723 7.48529 23.4367 7.58224 25.1597C7.67918 27.1611 8.13573 28.9373 9.59922 30.4008C11.0658 31.8674 12.8389 32.3208 14.8403 32.4178C16.5664 32.5147 18.277 32.4991 20 32.4991C21.7262 32.4991 23.4367 32.5147 25.1597 32.4178C27.1611 32.3208 28.9373 31.8643 30.4008 30.4008C31.8674 28.9342 32.3208 27.1611 32.4178 25.1597C32.5178 23.4367 32.4991 21.7262 32.4991 20ZM29.7472 27.3737C29.5189 27.9429 29.2437 28.3682 28.8028 28.806C28.3619 29.2469 27.9397 29.5221 27.3706 29.7503C25.7257 30.4039 21.82 30.2569 19.9969 30.2569C18.1738 30.2569 14.2649 30.4039 12.62 29.7535C12.0509 29.5252 11.6256 29.25 11.1878 28.8091C10.7469 28.3682 10.4717 27.946 10.2434 27.3769C9.59297 25.7289 9.73994 21.8231 9.73994 20C9.73994 18.1769 9.59297 14.268 10.2434 12.6231C10.4717 12.054 10.7469 11.6287 11.1878 11.1909C11.6287 10.7531 12.0509 10.4748 12.62 10.2465C14.2649 9.5961 18.1738 9.74307 19.9969 9.74307C21.82 9.74307 25.7289 9.5961 27.3737 10.2465C27.9429 10.4748 28.3682 10.75 28.806 11.1909C29.2469 11.6318 29.5221 12.054 29.7503 12.6231C30.4008 14.268 30.2538 18.1769 30.2538 20C30.2538 21.8231 30.4008 25.7289 29.7472 27.3737Z" fill="#727272"/>
</svg>
