<svg width="50" height="50" viewBox="0 0 50 50" fill="none" xmlns="http://www.w3.org/2000/svg">
<circle cx="25" cy="25" r="24" stroke="#3F3F3F" stroke-width="2"/>
<path d="M39.5 5.50024L10.5 44.5002" stroke="#3F3F3F" stroke-width="2"/>
<circle cx="25" cy="25" r="24" stroke="#3F3F3F" stroke-width="2"/>
<path d="M39.5 5.50024L10.5 44.5002" stroke="#3F3F3F" stroke-width="2"/>
<g clip-path="url(#clip0)">
<path d="M33.13 24.7134C32.9291 24.7134 32.7662 24.8763 32.7662 25.0772C32.7662 25.3319 32.559 25.5392 32.3042 25.5392C32.0495 25.5392 31.8423 25.3319 31.8423 25.0772C31.8423 24.8762 31.6794 24.7134 31.4784 24.7134C31.2775 24.7134 31.1146 24.8763 31.1146 25.0772C31.1146 25.7332 31.6483 26.2668 32.3042 26.2668C32.9601 26.2668 33.4938 25.7331 33.4938 25.0772C33.4938 24.8762 33.3309 24.7134 33.13 24.7134Z" fill="#3F3F3F"/>
<path d="M36.5451 24.7729L35.5211 24.4449C35.3899 24.4029 35.2866 24.2982 35.2446 24.1648C35.0288 23.4787 34.7031 22.8345 34.2766 22.2501C34.0822 21.9837 33.8661 21.7294 33.6299 21.4873C33.781 20.8245 33.8631 20.0745 33.8525 19.4265C33.8373 18.4995 33.652 17.9558 33.2862 17.7642C33.0892 17.6608 32.4896 17.347 29.2441 18.8326C29.1672 18.8678 29.0955 18.9111 29.029 18.9607C28.8102 18.9019 28.5866 18.8475 28.3616 18.7987C28.3345 18.7928 28.3065 18.7875 28.2792 18.7818C28.5422 18.2073 28.6958 17.5833 28.7247 16.9392C28.7336 16.7384 28.5782 16.5684 28.3774 16.5594C28.1772 16.5495 28.0066 16.7058 27.9977 16.9066C27.9503 17.9657 27.5109 18.9623 26.7606 19.7126C26.3124 20.1609 25.7875 20.4865 25.228 20.6916C24.2579 20.5555 23.2697 20.5555 22.2995 20.6916C21.74 20.4865 21.2152 20.1609 20.7669 19.7126C19.9664 18.9121 19.5255 17.8478 19.5255 16.7157C19.5255 15.5836 19.9664 14.5193 20.7669 13.7188C21.5674 12.9183 22.6317 12.4774 23.7638 12.4774C24.8958 12.4774 25.9602 12.9183 26.7606 13.7188C27.0823 14.0405 27.3481 14.4076 27.5507 14.8098C27.6411 14.9893 27.8599 15.0616 28.0394 14.9711C28.2188 14.8808 28.2911 14.662 28.2007 14.4826C27.9632 14.0109 27.6519 13.5809 27.2752 13.2042C26.3373 12.2663 25.0902 11.7498 23.7638 11.7498C22.4374 11.7498 21.1903 12.2663 20.2524 13.2042C19.3145 14.1422 18.7979 15.3893 18.7979 16.7157C18.7979 18.0421 19.3145 19.2892 20.2524 20.2271C20.5229 20.4977 20.8173 20.7303 21.1286 20.9252C20.9024 20.984 20.6782 21.05 20.4562 21.1242C20.2656 21.1879 20.1627 21.394 20.2265 21.5847C20.2901 21.7752 20.4963 21.8781 20.6869 21.8144C22.671 21.1511 24.8566 21.1511 26.8408 21.8144C26.8791 21.8272 26.9179 21.8333 26.9562 21.8333C27.1083 21.8333 27.2502 21.737 27.3012 21.5847C27.3649 21.3941 27.2621 21.1879 27.0715 21.1242C26.8495 21.05 26.625 20.9839 26.3987 20.9252C26.7101 20.7303 27.0047 20.4977 27.2752 20.2271C27.5146 19.9877 27.7259 19.7264 27.9093 19.4486C28.0096 19.4681 28.1092 19.4885 28.2073 19.5098C28.3379 19.5381 28.468 19.5686 28.5969 19.6006C28.5929 19.6164 28.5887 19.6322 28.5854 19.6482C28.4079 20.4903 28.4194 21.235 28.6196 21.8616C28.7995 22.4249 29.1241 22.8812 29.5844 23.2179C30.127 23.6148 30.7819 23.7862 31.3752 23.7862C31.8218 23.7862 32.2334 23.6891 32.5358 23.5178C32.8778 23.3241 33.1643 22.916 33.3911 22.3032C33.4959 22.4255 33.5953 22.5509 33.689 22.6792C34.0687 23.1994 34.3586 23.7728 34.5506 24.3832C34.6633 24.7417 34.9432 25.0239 35.2992 25.138L36.3232 25.466C36.5919 25.5521 36.7725 25.7994 36.7725 26.0815V27.7795C36.7725 28.0617 36.5919 28.309 36.3232 28.3951L34.6734 28.9235C34.4094 29.0082 34.186 29.1895 34.0444 29.4344C33.3962 30.5546 32.3771 31.4816 31.0152 32.1896C30.8579 32.2715 30.7489 32.418 30.7161 32.5915L30.1877 35.3895C30.1731 35.4666 30.1056 35.5225 30.0271 35.5225H28.309C28.2305 35.5225 28.163 35.4665 28.1484 35.3895L27.8557 33.8432C27.7981 33.5389 27.5127 33.3368 27.2056 33.3833C26.4655 33.4953 25.7029 33.552 24.9391 33.552C24.3708 33.552 23.8099 33.5203 23.2716 33.4577C22.974 33.4235 22.6968 33.6264 22.6412 33.9202L22.363 35.3895C22.3484 35.4666 22.2809 35.5225 22.2024 35.5225H20.4843C20.4059 35.5225 20.3383 35.4665 20.3235 35.3883L19.8147 32.7457C19.782 32.5754 19.675 32.4306 19.5212 32.3484C17.1997 31.1091 15.9727 29.0386 15.9727 26.3609C15.9727 25.008 16.2687 23.8116 16.8524 22.805C17.3971 21.8656 18.1927 21.0889 19.2171 20.4963C19.391 20.3957 19.4504 20.1731 19.3499 19.9992C19.2493 19.8252 19.0267 19.7659 18.8527 19.8664C16.8665 21.0154 15.6685 22.7881 15.3386 25.0395C15.3036 25.0364 15.2686 25.0333 15.2336 25.0297C15.24 24.7868 15.196 24.5416 15.1003 24.3038C14.8893 23.7791 14.4557 23.4003 13.9957 23.339C13.6332 23.2904 13.2882 23.4443 13.0488 23.7606C12.7017 24.2193 12.7583 24.5823 12.8668 24.8061C13.05 25.1836 13.5211 25.4507 14.3028 25.6187C14.2813 25.6508 14.2577 25.6832 14.2318 25.7156C13.7699 26.2949 13.2258 26.4229 12.8725 26.435C12.6656 26.442 12.5 26.6081 12.5 26.815V26.8168C12.5 27.0209 12.6611 27.1874 12.865 27.1968C12.8912 27.198 12.9185 27.1986 12.9469 27.1986C13.3939 27.1986 14.1115 27.0337 14.8008 26.1693C14.9097 26.0329 14.9983 25.889 15.0665 25.7402C15.1352 25.748 15.2011 25.7546 15.2643 25.7605C15.2519 25.9577 15.2451 26.1573 15.2451 26.3609C15.2451 27.8759 15.6063 29.2268 16.3185 30.376C16.9752 31.4356 17.9155 32.3032 19.1142 32.9556L19.6088 35.5248C19.6883 35.9451 20.0565 36.2501 20.4843 36.2501H22.2024C22.6302 36.2501 22.9984 35.9451 23.078 35.5248L23.3294 34.1962C23.8517 34.2516 24.3924 34.2796 24.9391 34.2796C25.6891 34.2796 26.4382 34.2273 27.1683 34.1242L27.4333 35.5248C27.5129 35.9452 27.8812 36.2502 28.3089 36.2502H30.027C30.4548 36.2502 30.823 35.9451 30.9026 35.5247L31.4171 32.8005C32.8706 32.0319 33.9662 31.0222 34.6741 29.7988C34.7251 29.7106 34.8037 29.6459 34.8953 29.6166L36.5451 29.0881C37.1163 28.905 37.5 28.3792 37.5 27.7794V26.0814C37.5 25.4817 37.1163 24.9559 36.5451 24.7729ZM33.0702 20.4489C32.9302 21.6464 32.5545 22.6708 32.1771 22.8846C31.7481 23.1276 30.7576 23.1746 30.014 22.6306C29.2694 22.0859 29.0216 21.1065 29.2973 19.7982C29.325 19.6668 29.4183 19.5531 29.547 19.4942C31.3685 18.6604 32.4186 18.3877 32.8087 18.3877C32.8676 18.3877 32.9115 18.3939 32.9407 18.4054C33.0579 18.5303 33.2116 19.2403 33.0702 20.4489ZM13.5215 24.4883C13.4839 24.4107 13.5728 24.2742 13.6291 24.1997C13.7184 24.0817 13.8007 24.0576 13.8628 24.0576C13.876 24.0576 13.8882 24.0587 13.8995 24.0602C14.0667 24.0825 14.3011 24.2666 14.4253 24.5752C14.4545 24.6479 14.4925 24.7683 14.5014 24.9184C13.9978 24.814 13.6064 24.6636 13.5215 24.4883Z" fill="#3F3F3F"/>
<path d="M24.1171 16.2985V14.9965C24.5661 15.0286 24.7329 15.2338 24.8868 15.2338C25.0792 15.2338 25.169 14.9901 25.169 14.8683C25.169 14.554 24.5532 14.4193 24.1171 14.4064V14.2332C24.1171 14.1562 24.0209 14.0857 23.9247 14.0857C23.8156 14.0857 23.7386 14.1562 23.7386 14.2332V14.4192C23.1293 14.4833 22.52 14.8041 22.52 15.6122C22.52 16.4332 23.1614 16.6641 23.7386 16.8693V18.3766C23.0844 18.3253 22.9112 17.8763 22.6996 17.8763C22.5392 17.8763 22.4045 18.088 22.4045 18.2419C22.4045 18.5562 22.9433 18.9859 23.7386 18.9988V19.1976C23.7386 19.2746 23.8156 19.3451 23.9247 19.3451C24.0209 19.3451 24.1171 19.2746 24.1171 19.1976V18.9795C24.8098 18.8833 25.2844 18.4472 25.2844 17.6583C25.2844 16.786 24.6751 16.5037 24.1171 16.2985ZM23.7771 16.1767C23.4372 16.0484 23.1614 15.9137 23.1614 15.5481C23.1614 15.2146 23.4179 15.0542 23.7771 15.0094V16.1767ZM24.0786 18.3638V17.0104C24.3928 17.1451 24.643 17.3247 24.643 17.7288C24.643 18.0944 24.4249 18.2997 24.0786 18.3638Z" fill="#3F3F3F"/>
</g>
<defs>
<clipPath id="clip0">
<rect width="25" height="25" fill="white" transform="translate(12.5 11.5)"/>
</clipPath>
</defs>
</svg>
