<svg width="50" height="50" viewBox="0 0 50 50" fill="none" xmlns="http://www.w3.org/2000/svg">
<path fill-rule="evenodd" clip-rule="evenodd" d="M17.0095 6.22188C14.1517 6.99016 11.3123 7.82581 8.49389 8.72812C8.23883 8.80686 8.01116 8.95595 7.83703 9.15827C7.6629 9.36059 7.54939 9.60793 7.50952 9.87187C5.8439 22.05 9.68764 30.9375 14.272 36.7906C16.572 39.7281 19.0626 41.9031 21.1376 43.3313C22.1783 44.0438 23.0939 44.5625 23.8158 44.8938C24.1783 45.0594 24.472 45.1719 24.697 45.2375C24.7962 45.2694 24.8975 45.2945 25.0001 45.3125C25.022 45.3094 25.1189 45.2969 25.3033 45.2406C25.5283 45.1719 25.822 45.0594 26.1845 44.8938C26.9033 44.5625 27.8251 44.0438 28.8626 43.3313C31.4646 41.5057 33.7787 39.301 35.7283 36.7906C40.3126 30.9375 44.1564 22.05 42.4908 9.87187C42.4509 9.60793 42.3374 9.36059 42.1633 9.15827C41.9891 8.95595 41.7615 8.80686 41.5064 8.72812C39.5501 8.10312 36.2501 7.08438 32.9908 6.22188C29.6595 5.34375 26.5939 4.6875 25.0001 4.6875C23.4064 4.6875 20.3439 5.34375 17.0095 6.22188ZM16.2095 3.20312C19.4689 2.34062 22.9283 1.5625 25.0001 1.5625C27.0689 1.5625 30.5314 2.34062 33.7908 3.20312C36.6979 3.98367 39.5863 4.83287 42.4533 5.75C44.1033 6.275 45.347 7.69687 45.5877 9.45C47.3783 22.5656 43.2251 32.2844 38.1908 38.7156C36.0454 41.4757 33.4983 43.8984 30.6345 45.9031C29.6387 46.6006 28.5861 47.2132 27.4876 47.7344C26.6439 48.1219 25.7439 48.4375 25.0001 48.4375C24.2564 48.4375 23.3564 48.1219 22.5126 47.7344C21.414 47.2137 20.3613 46.6011 19.3658 45.9031C16.5031 43.8981 13.9571 41.4754 11.8126 38.7156C6.77202 32.2844 2.62202 22.5656 4.41264 9.45C4.53237 8.60022 4.89029 7.80172 5.44499 7.14692C5.99969 6.49212 6.72849 6.00779 7.54702 5.75C10.414 4.83289 13.3024 3.98369 16.2095 3.20312V3.20312Z" fill="#3F3F3F"/>
<g clip-path="url(#clip0)">
<path d="M33.5376 29.6362H18.999L19.729 28.1494L31.8579 28.1274C32.2681 28.1274 32.6196 27.8345 32.6929 27.4292L34.3726 18.0273C34.4165 17.7808 34.3506 17.5269 34.1895 17.334C34.1098 17.2391 34.0105 17.1626 33.8983 17.1099C33.7862 17.0572 33.6639 17.0295 33.54 17.0288L18.1104 16.9775L17.9785 16.3574C17.8955 15.9619 17.5391 15.6738 17.1338 15.6738H13.3618C13.1332 15.6738 12.914 15.7646 12.7524 15.9262C12.5908 16.0879 12.5 16.3071 12.5 16.5356C12.5 16.7642 12.5908 16.9834 12.7524 17.145C12.914 17.3067 13.1332 17.3975 13.3618 17.3975H16.4355L17.0117 20.1367L18.4302 27.0044L16.604 29.9854C16.5092 30.1134 16.452 30.2653 16.4391 30.4241C16.4262 30.5829 16.4579 30.7421 16.5308 30.8838C16.6772 31.1743 16.9727 31.3574 17.2998 31.3574H18.833C18.5061 31.7916 18.3296 32.3203 18.3301 32.8638C18.3301 34.2456 19.4531 35.3687 20.835 35.3687C22.2168 35.3687 23.3398 34.2456 23.3398 32.8638C23.3398 32.3193 23.1592 31.7896 22.8369 31.3574H26.77C26.4432 31.7916 26.2666 32.3203 26.2671 32.8638C26.2671 34.2456 27.3901 35.3687 28.772 35.3687C30.1538 35.3687 31.2769 34.2456 31.2769 32.8638C31.2769 32.3193 31.0962 31.7896 30.7739 31.3574H33.54C34.0137 31.3574 34.4019 30.9717 34.4019 30.4956C34.4004 30.2673 34.3088 30.0488 34.1469 29.8878C33.9849 29.7268 33.7659 29.6364 33.5376 29.6362V29.6362ZM18.4692 18.6768L32.5269 18.7231L31.1499 26.4331L20.1074 26.4526L18.4692 18.6768ZM20.835 33.6353C20.4102 33.6353 20.0635 33.2886 20.0635 32.8638C20.0635 32.439 20.4102 32.0923 20.835 32.0923C21.2598 32.0923 21.6064 32.439 21.6064 32.8638C21.6064 33.0684 21.5252 33.2646 21.3805 33.4093C21.2358 33.554 21.0396 33.6353 20.835 33.6353V33.6353ZM28.772 33.6353C28.3472 33.6353 28.0005 33.2886 28.0005 32.8638C28.0005 32.439 28.3472 32.0923 28.772 32.0923C29.1968 32.0923 29.5435 32.439 29.5435 32.8638C29.5435 33.0684 29.4622 33.2646 29.3175 33.4093C29.1728 33.554 28.9766 33.6353 28.772 33.6353V33.6353Z" fill="#3F3F3F"/>
</g>
<defs>
<clipPath id="clip0">
<rect width="25" height="25" fill="white" transform="translate(12.5 12.5)"/>
</clipPath>
</defs>
</svg>
